<svg width="412" height="412" viewBox="0 0 412 412" fill="none" xmlns="http://www.w3.org/2000/svg">
<path d="M150.209 181.244C194.859 181.244 231.054 217.44 231.054 262.089C231.054 306.738 194.859 342.934 150.209 342.934H69.3647V262.089C69.3648 217.44 105.56 181.244 150.209 181.244Z" stroke="#03852C" stroke-width="15"/>
<path d="M262.122 181.243C217.473 181.243 181.277 217.439 181.277 262.088C181.277 306.737 217.473 342.933 262.122 342.933H342.967V262.088C342.967 217.439 306.771 181.243 262.122 181.243Z" stroke="#03852C" stroke-width="15"/>
<path d="M150.213 231.031C194.863 231.031 231.058 194.836 231.058 150.187C231.058 105.537 194.863 69.3418 150.213 69.3418H69.3687V150.187C69.3687 194.836 105.564 231.031 150.213 231.031Z" stroke="#03852C" stroke-width="15"/>
<path d="M262.112 231.031C217.463 231.031 181.268 194.836 181.268 150.187C181.268 105.537 217.463 69.3418 262.112 69.3418H342.957V150.187C342.957 194.836 306.762 231.031 262.112 231.031Z" stroke="#03852C" stroke-width="15"/>
<path d="M182.175 150.226C213.747 181.798 213.747 232.986 182.175 264.558C150.603 296.129 99.4152 296.129 67.8433 264.558L10.6774 207.392L67.8433 150.226L68.5871 149.492C100.214 118.656 150.85 118.901 182.175 150.226Z" stroke="#03852C" stroke-width="15"/>
<path d="M229.825 150.229C198.253 181.801 198.253 232.989 229.825 264.561C261.397 296.133 312.585 296.133 344.157 264.561L401.323 207.395L344.157 150.229L343.413 149.495C311.786 118.66 261.15 118.904 229.825 150.229Z" stroke="#03852C" stroke-width="15"/>
<path d="M150.409 182.104C181.981 213.676 233.169 213.676 264.741 182.104C296.313 150.532 296.313 99.344 264.741 67.7722L207.575 10.6064L150.409 67.7722L149.675 68.5159C118.839 100.143 119.084 150.779 150.409 182.104Z" stroke="#03852C" stroke-width="15"/>
<path d="M150.42 229.731C181.991 198.159 233.18 198.159 264.751 229.731C296.323 261.303 296.323 312.491 264.751 344.063L207.585 401.229L150.42 344.063L149.685 343.319C118.85 311.692 119.094 261.056 150.42 229.731Z" stroke="#03852C" stroke-width="15"/>
</svg>
