<svg width="46" height="46" viewBox="0 0 46 46" fill="none" xmlns="http://www.w3.org/2000/svg">
<path d="M6.33333 32.375C6.33333 34.0326 6.99181 35.6223 8.16392 36.7944C9.33602 37.9665 10.9257 38.625 12.5833 38.625C12.5833 40.0063 13.1321 41.3311 14.1088 42.3078C15.0856 43.2846 16.4103 43.8333 17.7917 43.8333C19.173 43.8333 20.4978 43.2846 21.4745 42.3078C22.4513 41.3311 23 40.0063 23 38.625C23 40.0063 23.5487 41.3311 24.5255 42.3078C25.5022 43.2846 26.827 43.8333 28.2083 43.8333C29.5897 43.8333 30.9144 43.2846 31.8912 42.3078C32.8679 41.3311 33.4167 40.0063 33.4167 38.625C34.5247 38.6251 35.6128 38.3306 36.5696 37.7717C37.5263 37.2129 38.3173 36.4097 38.8615 35.4445C39.4057 34.4793 39.6835 33.3868 39.6665 32.2789C39.6494 31.171 39.3382 30.0876 38.7646 29.1396C40.1905 28.864 41.4761 28.1007 42.4005 26.9805C43.3249 25.8604 43.8306 24.4534 43.8306 23.001C43.8306 21.5487 43.3249 20.1417 42.4005 19.0215C41.4761 17.9014 40.1905 17.138 38.7646 16.8625C39.3387 15.9144 39.6504 14.8308 39.6677 13.7226C39.685 12.6144 39.4073 11.5215 38.8631 10.556C38.3188 9.59046 37.5276 8.78704 36.5706 8.22807C35.6135 7.66909 34.525 7.37467 33.4167 7.37499C33.4167 5.99365 32.8679 4.66889 31.8912 3.69214C30.9144 2.71539 29.5897 2.16666 28.2083 2.16666C26.827 2.16666 25.5022 2.71539 24.5255 3.69214C23.5487 4.66889 23 5.99365 23 7.37499C23 5.99365 22.4513 4.66889 21.4745 3.69214C20.4978 2.71539 19.173 2.16666 17.7917 2.16666C16.4103 2.16666 15.0856 2.71539 14.1088 3.69214C13.1321 4.66889 12.5833 5.99365 12.5833 7.37499C11.4753 7.3749 10.3872 7.66937 9.43042 8.22824C8.47366 8.7871 7.68267 9.59028 7.1385 10.5555C6.59432 11.5207 6.31651 12.6132 6.33354 13.7211C6.35058 14.8289 6.66183 15.9124 7.23542 16.8604C5.80946 17.1359 4.5239 17.8993 3.59948 19.0194C2.67506 20.1396 2.16944 21.5466 2.16944 22.999C2.16944 24.4513 2.67506 25.8583 3.59948 26.9785C4.5239 28.0986 5.80946 28.862 7.23542 29.1375C6.64477 30.1141 6.33279 31.2337 6.33333 32.375Z" stroke="#03852C" stroke-width="3" stroke-linecap="round" stroke-linejoin="round"/>
<path d="M13.625 28.2083L17.4625 16.6958C17.5588 16.4085 17.743 16.1587 17.989 15.9818C18.2349 15.8048 18.5303 15.7096 18.8333 15.7096C19.1364 15.7096 19.4317 15.8048 19.6777 15.9818C19.9237 16.1587 20.1078 16.4085 20.2042 16.6958L24.0417 28.2083M30.2917 15.7083V28.2083M15.7083 24.0416H21.9583" stroke="#03852C" stroke-width="3" stroke-linecap="round" stroke-linejoin="round"/>
</svg>
