<svg width="988" height="777" viewBox="0 0 988 777" fill="none" xmlns="http://www.w3.org/2000/svg">
<path d="M378.275 251.387L421.614 263.538C493.404 283.665 535.285 358.179 515.158 429.969L503.008 473.307C482.88 545.097 408.366 586.978 336.576 566.851L163.25 518.257L211.844 344.931L212.325 343.254C233.135 272.49 307.046 231.417 378.275 251.387Z" stroke="white" stroke-width="30"/>
<path d="M632.027 322.527L588.688 310.376C516.898 290.249 442.384 332.13 422.257 403.92L410.106 447.258C389.979 519.048 431.86 593.562 503.651 613.69L676.977 662.284L725.571 488.958L726.032 487.275C745.043 416.007 703.257 342.497 632.027 322.527Z" stroke="white" stroke-width="30"/>
<path d="M352.231 344.312L395.569 356.462C467.36 376.589 541.874 334.708 562.001 262.918L574.151 219.58C594.279 147.79 552.398 73.2759 480.607 53.1486L307.281 4.55421L258.687 177.88L258.226 179.563C239.215 250.831 281.001 324.341 352.231 344.312Z" stroke="white" stroke-width="30"/>
<path d="M605.954 415.446L562.615 403.296C490.825 383.168 448.944 308.654 469.071 236.864L481.222 193.526C501.349 121.736 575.863 79.8548 647.653 99.9821L820.98 148.576L772.386 321.902L771.904 323.58C751.094 394.343 677.184 435.416 605.954 415.446Z" stroke="white" stroke-width="30"/>
<path d="M465.155 196.207L487.208 235.444C523.739 300.44 500.664 382.743 435.669 419.274L396.432 441.328C331.436 477.859 249.132 454.784 212.601 389.788L124.402 232.867L281.324 144.668L282.85 143.822C347.603 108.5 428.909 131.72 465.155 196.207Z" stroke="white" stroke-width="30"/>
<path d="M585.87 230.058L546.633 252.112C481.637 288.643 458.562 370.946 495.093 435.942L517.147 475.179C553.678 540.174 635.982 563.249 700.978 526.718L857.9 438.519L769.7 281.598L768.836 280.082C731.884 216.245 650.357 193.813 585.87 230.058Z" stroke="white" stroke-width="30"/>
<path d="M389.247 239.049L411.301 278.285C447.832 343.281 530.136 366.356 595.132 329.825L634.369 307.772C699.364 271.24 722.439 188.937 685.908 123.941L597.708 -32.9804L440.787 55.2183L439.27 56.0827C375.434 93.0343 353.001 174.561 389.247 239.049Z" stroke="white" stroke-width="30"/>
<path d="M355.433 359.73L394.67 337.676C459.665 301.145 541.969 324.22 578.5 389.216L600.554 428.452C637.085 493.448 614.01 575.752 549.015 612.283L392.093 700.482L303.893 543.56L303.048 542.033C267.725 477.281 290.945 395.975 355.433 359.73Z" stroke="white" stroke-width="30"/>
</svg>
