<svg width="67" height="67" viewBox="0 0 67 67" fill="none" xmlns="http://www.w3.org/2000/svg">
<path d="M24.111 29.4025C31.1181 29.4025 36.7984 35.0829 36.7985 42.09C36.7985 49.0971 31.1181 54.7775 24.111 54.7775H11.4235V42.09C11.4235 35.0829 17.1039 29.4026 24.111 29.4025Z" stroke="white" stroke-width="3"/>
<path d="M42.0836 29.4023C35.0765 29.4023 29.3961 35.0826 29.3961 42.0898C29.3961 49.0969 35.0765 54.7773 42.0836 54.7773H54.7711V42.0898C54.7711 35.0827 49.0907 29.4023 42.0836 29.4023Z" stroke="white" stroke-width="3"/>
<path d="M24.1116 36.8069C31.1187 36.8069 36.7991 31.1265 36.7991 24.1194C36.7991 17.1122 31.1187 11.4319 24.1116 11.4319H11.4241V24.1194C11.4241 31.1264 17.1045 36.8068 24.1116 36.8069Z" stroke="white" stroke-width="3"/>
<path d="M42.0819 36.8069C35.0748 36.8069 29.3944 31.1265 29.3944 24.1194C29.3944 17.1122 35.0748 11.4319 42.0819 11.4319H54.7694V24.1194C54.7693 31.1264 49.089 36.8068 42.0819 36.8069Z" stroke="white" stroke-width="3"/>
<path d="M29.0355 24.3346C33.9903 29.2893 33.9902 37.3226 29.0355 42.2774C24.0807 47.2322 16.0474 47.2322 11.0926 42.2774L2.12118 33.306L11.0926 24.3346C16.0474 19.3798 24.0807 19.3798 29.0355 24.3346Z" stroke="white" stroke-width="3"/>
<path d="M37.1058 24.3351C32.151 29.2899 32.151 37.3231 37.1058 42.2779C42.0606 47.2327 50.0938 47.2327 55.0486 42.2779L64.0201 33.3065L55.0486 24.3351C50.0938 19.3804 42.0606 19.3804 37.1058 24.3351Z" stroke="white" stroke-width="3"/>
<path d="M24.3521 29.0359C29.3069 33.9906 37.3402 33.9906 42.295 29.0359C47.2498 24.0811 47.2498 16.0478 42.295 11.0931L33.3236 2.12165L24.3521 11.0931C19.3974 16.0478 19.3974 24.0811 24.3521 29.0359Z" stroke="white" stroke-width="3"/>
<path d="M24.3537 37.1027C29.3085 32.1479 37.3417 32.1479 42.2966 37.1027C47.2514 42.0575 47.2514 50.0907 42.2966 55.0455L33.3251 64.0169L24.3537 55.0455C19.399 50.0907 19.399 42.0574 24.3537 37.1027Z" stroke="white" stroke-width="3"/>
</svg>
