<svg width="671" height="593" viewBox="0 0 671 593" fill="none" xmlns="http://www.w3.org/2000/svg">
<path d="M470.475 71.6875C501.962 71.6877 527.581 97.3079 527.581 128.795C527.581 160.282 501.961 185.901 470.475 185.901C438.988 185.901 413.367 160.282 413.367 128.795C413.367 97.3078 438.988 71.6875 470.475 71.6875ZM441.671 92.29C437.418 92.29 433.97 95.7384 433.97 99.9912V157.599C433.97 161.851 437.418 165.299 441.671 165.299H477.675C481.927 165.299 485.376 161.851 485.376 157.599V132.896H507.382L499.979 140.297C498.428 141.849 498.379 144.332 499.834 145.942L499.979 146.096C500.78 146.896 501.83 147.297 502.878 147.297C503.861 147.297 504.846 146.945 505.625 146.241L505.777 146.096L520.18 131.693C521.781 130.092 521.781 127.497 520.18 125.896L505.777 111.494C504.226 109.942 501.742 109.894 500.132 111.349L499.979 111.494C498.428 113.046 498.379 115.529 499.834 117.139L499.979 117.292L507.382 124.694H485.376V107.192C485.376 105.278 484.663 103.436 483.384 102.023L483.12 101.747L475.919 94.5459C474.475 93.1022 472.516 92.2901 470.475 92.29H441.671Z" fill="#03852C" stroke="url(#paint0_linear_126_17646)"/>
<path d="M528.081 128.795C528.081 97.0314 502.238 71.1875 470.474 71.1875C438.711 71.1875 412.867 97.0314 412.867 128.795C412.867 160.558 438.711 186.402 470.474 186.402C502.238 186.402 528.081 160.558 528.081 128.795ZM434.47 157.598V99.9911C434.47 96.0144 437.694 92.7902 441.671 92.7902H470.474C472.384 92.7902 474.215 93.5496 475.565 94.8998L482.766 102.101C484.117 103.451 484.876 105.283 484.876 107.192V125.194H508.588L500.333 116.938C498.926 115.532 498.926 113.254 500.333 111.847C501.739 110.441 504.018 110.441 505.424 111.847L519.826 126.249C521.232 127.655 521.232 129.934 519.826 131.34L505.424 145.742C504.721 146.445 503.8 146.797 502.878 146.797C501.957 146.797 501.036 146.445 500.333 145.742C498.926 144.336 498.926 142.057 500.333 140.651L508.588 132.395H484.876V157.598C484.876 161.575 481.652 164.799 477.675 164.799H441.671C437.694 164.799 434.47 161.575 434.47 157.598Z" fill="#717171"/>
<path d="M470.473 251.21C470.473 263.122 480.163 272.813 492.075 272.813H592.888C604.8 272.813 614.491 263.122 614.491 251.21V229.607H470.473V251.21ZM585.687 247.609C585.687 245.619 587.297 244.009 589.287 244.009C591.277 244.009 592.888 245.619 592.888 247.609V254.81C592.888 256.8 591.277 258.411 589.287 258.411C587.297 258.411 585.687 256.8 585.687 254.81V247.609ZM571.285 247.609C571.285 245.619 572.896 244.009 574.886 244.009C576.876 244.009 578.486 245.619 578.486 247.609V254.81C578.486 256.8 576.876 258.411 574.886 258.411C572.896 258.411 571.285 256.8 571.285 254.81V247.609ZM556.883 247.609C556.883 245.619 558.494 244.009 560.484 244.009C562.474 244.009 564.084 245.619 564.084 247.609V254.81C564.084 256.8 562.474 258.411 560.484 258.411C558.494 258.411 556.883 256.8 556.883 254.81V247.609ZM542.482 247.609C542.482 245.619 544.092 244.009 546.082 244.009C548.072 244.009 549.682 245.619 549.682 247.609V254.81C549.682 256.8 548.072 258.411 546.082 258.411C544.092 258.411 542.482 256.8 542.482 254.81V247.609Z" fill="url(#paint1_linear_126_17646)"/>
<path d="M470.473 193.603V222.406H614.491V179.201H511.116C499.989 188.191 485.857 193.603 470.473 193.603ZM585.687 197.203C585.687 195.213 587.297 193.603 589.287 193.603C591.277 193.603 592.888 195.213 592.888 197.203V204.404C592.888 206.394 591.277 208.004 589.287 208.004C587.297 208.004 585.687 206.394 585.687 204.404V197.203ZM571.285 197.203C571.285 195.213 572.896 193.603 574.886 193.603C576.876 193.603 578.486 195.213 578.486 197.203V204.404C578.486 206.394 576.876 208.004 574.886 208.004C572.896 208.004 571.285 206.394 571.285 204.404V197.203ZM556.883 197.203C556.883 195.213 558.494 193.603 560.484 193.603C562.474 193.603 564.084 195.213 564.084 197.203V204.404C564.084 206.394 562.474 208.004 560.484 208.004C558.494 208.004 556.883 206.394 556.883 204.404V197.203ZM542.482 197.203C542.482 195.213 544.092 193.603 546.082 193.603C548.072 193.603 549.682 195.213 549.682 197.203V204.404C549.682 206.394 548.072 208.004 546.082 208.004C544.092 208.004 542.482 206.394 542.482 204.404V197.203Z" fill="#717171"/>
<path d="M518.645 172H614.496V128.795H535.286C535.286 145.401 528.953 160.52 518.645 172ZM585.692 146.797C585.692 144.807 587.303 143.196 589.293 143.196C591.283 143.196 592.893 144.807 592.893 146.797V153.998C592.893 155.988 591.283 157.598 589.293 157.598C587.303 157.598 585.692 155.988 585.692 153.998V146.797ZM571.291 146.797C571.291 144.807 572.901 143.196 574.891 143.196C576.881 143.196 578.491 144.807 578.491 146.797V153.998C578.491 155.988 576.881 157.598 574.891 157.598C572.901 157.598 571.291 155.988 571.291 153.998V146.797ZM556.889 146.797C556.889 144.807 558.499 143.196 560.489 143.196C562.479 143.196 564.09 144.807 564.09 146.797V153.998C564.09 155.988 562.479 157.598 560.489 157.598C558.499 157.598 556.889 155.988 556.889 153.998V146.797ZM542.487 146.797C542.487 144.807 544.097 143.196 546.087 143.196C548.077 143.196 549.688 144.807 549.688 146.797V153.998C549.688 155.988 548.077 157.598 546.087 157.598C544.097 157.598 542.487 155.988 542.487 153.998V146.797Z" fill="#717171"/>
<path d="M592.893 78.3885H511.121C524.077 88.8554 532.926 104.189 534.861 121.594H614.496V99.9912C614.496 88.0788 604.806 78.3885 592.893 78.3885ZM549.688 103.592C549.688 105.582 548.078 107.192 546.088 107.192C544.098 107.192 542.487 105.582 542.487 103.592V96.3908C542.487 94.4007 544.098 92.7903 546.088 92.7903C548.078 92.7903 549.688 94.4007 549.688 96.3908V103.592ZM564.09 103.592C564.09 105.582 562.48 107.192 560.489 107.192C558.499 107.192 556.889 105.582 556.889 103.592V96.3908C556.889 94.4007 558.499 92.7903 560.489 92.7903C562.48 92.7903 564.09 94.4007 564.09 96.3908V103.592ZM578.492 103.592C578.492 105.582 576.881 107.192 574.891 107.192C572.901 107.192 571.291 105.582 571.291 103.592V96.3908C571.291 94.4007 572.901 92.7903 574.891 92.7903C576.881 92.7903 578.492 94.4007 578.492 96.3908V103.592ZM592.893 103.592C592.893 105.582 591.283 107.192 589.293 107.192C587.303 107.192 585.693 105.582 585.693 103.592V96.3908C585.693 94.4007 587.303 92.7903 589.293 92.7903C591.283 92.7903 592.893 94.4007 592.893 96.3908V103.592Z" fill="#717171"/>
<path d="M445.275 117.993H474.079C476.069 117.993 477.679 116.383 477.679 114.393C477.679 112.403 476.069 110.792 474.079 110.792H445.275C443.285 110.792 441.675 112.403 441.675 114.393C441.675 116.383 443.285 117.993 445.275 117.993Z" fill="#03852C"/>
<path d="M445.275 132.395H474.079C476.069 132.395 477.679 130.785 477.679 128.795C477.679 126.804 476.069 125.194 474.079 125.194H445.275C443.285 125.194 441.675 126.804 441.675 128.795C441.675 130.785 443.285 132.395 445.275 132.395Z" fill="#03852C"/>
<path d="M474.079 139.596H445.275C443.285 139.596 441.675 141.206 441.675 143.196C441.675 145.186 443.285 146.797 445.275 146.797H474.079C476.069 146.797 477.679 145.186 477.679 143.196C477.679 141.206 476.069 139.596 474.079 139.596Z" fill="#03852C"/>
<rect x="57" y="291.5" width="557" height="230" rx="19.5" stroke="#03852C"/>
<path d="M148.5 298H124.5C122.291 298 120.5 299.791 120.5 302V326C120.5 328.209 122.291 330 124.5 330H148.5C150.709 330 152.5 328.209 152.5 326V302C152.5 299.791 150.709 298 148.5 298Z" fill="#717171"/>
<path d="M115.5 302V326C115.5 328.21 113.71 330 111.5 330H67.5C65.29 330 63.5 328.21 63.5 326V310C63.5 303.38 68.88 298 75.5 298H111.5C113.71 298 115.5 299.79 115.5 302Z" fill="#03852C"/>
<path d="M190.5 326V302C190.5 299.791 188.709 298 186.5 298H162.5C160.291 298 158.5 299.791 158.5 302V326C158.5 328.209 160.291 330 162.5 330H186.5C188.709 330 190.5 328.209 190.5 326Z" fill="#717171"/>
<path d="M228.5 326V302C228.5 299.791 226.709 298 224.5 298H200.5C198.291 298 196.5 299.791 196.5 302V326C196.5 328.209 198.291 330 200.5 330H224.5C226.709 330 228.5 328.209 228.5 326Z" fill="#717171"/>
<path d="M266.5 326V302C266.5 299.791 264.709 298 262.5 298H238.5C236.291 298 234.5 299.791 234.5 302V326C234.5 328.209 236.291 330 238.5 330H262.5C264.709 330 266.5 328.209 266.5 326Z" fill="#717171"/>
<path d="M304.5 326V302C304.5 299.791 302.709 298 300.5 298H276.5C274.291 298 272.5 299.791 272.5 302V326C272.5 328.209 274.291 330 276.5 330H300.5C302.709 330 304.5 328.209 304.5 326Z" fill="#717171"/>
<path d="M342.5 326V302C342.5 299.791 340.709 298 338.5 298H314.5C312.291 298 310.5 299.791 310.5 302V326C310.5 328.209 312.291 330 314.5 330H338.5C340.709 330 342.5 328.209 342.5 326Z" fill="#717171"/>
<path d="M380.5 326V302C380.5 299.791 378.709 298 376.5 298H352.5C350.291 298 348.5 299.791 348.5 302V326C348.5 328.209 350.291 330 352.5 330H376.5C378.709 330 380.5 328.209 380.5 326Z" fill="#717171"/>
<path d="M418.5 326V302C418.5 299.791 416.709 298 414.5 298H390.5C388.291 298 386.5 299.791 386.5 302V326C386.5 328.209 388.291 330 390.5 330H414.5C416.709 330 418.5 328.209 418.5 326Z" fill="#717171"/>
<path d="M456.5 326V302C456.5 299.791 454.709 298 452.5 298H428.5C426.291 298 424.5 299.791 424.5 302V326C424.5 328.209 426.291 330 428.5 330H452.5C454.709 330 456.5 328.209 456.5 326Z" fill="#717171"/>
<path d="M494.5 326V302C494.5 299.791 492.709 298 490.5 298H466.5C464.291 298 462.5 299.791 462.5 302V326C462.5 328.209 464.291 330 466.5 330H490.5C492.709 330 494.5 328.209 494.5 326Z" fill="#717171"/>
<path d="M532.5 326V302C532.5 299.791 530.709 298 528.5 298H504.5C502.291 298 500.5 299.791 500.5 302V326C500.5 328.209 502.291 330 504.5 330H528.5C530.709 330 532.5 328.209 532.5 326Z" fill="#717171"/>
<path d="M570.5 326V302C570.5 299.791 568.709 298 566.5 298H542.5C540.291 298 538.5 299.791 538.5 302V326C538.5 328.209 540.291 330 542.5 330H566.5C568.709 330 570.5 328.209 570.5 326Z" fill="#717171"/>
<path d="M133.5 363V339C133.5 336.791 131.709 335 129.5 335H105.5C103.291 335 101.5 336.791 101.5 339V363C101.5 365.209 103.291 367 105.5 367H129.5C131.709 367 133.5 365.209 133.5 363Z" fill="#717171"/>
<path d="M95.5 363V339C95.5 336.791 93.7091 335 91.5 335H67.5C65.2909 335 63.5 336.791 63.5 339V363C63.5 365.209 65.2909 367 67.5 367H91.5C93.7091 367 95.5 365.209 95.5 363Z" fill="#717171"/>
<path d="M171.5 363V339C171.5 336.791 169.709 335 167.5 335H143.5C141.291 335 139.5 336.791 139.5 339V363C139.5 365.209 141.291 367 143.5 367H167.5C169.709 367 171.5 365.209 171.5 363Z" fill="#717171"/>
<path d="M209.5 363V339C209.5 336.791 207.709 335 205.5 335H181.5C179.291 335 177.5 336.791 177.5 339V363C177.5 365.209 179.291 367 181.5 367H205.5C207.709 367 209.5 365.209 209.5 363Z" fill="#717171"/>
<path d="M247.5 363V339C247.5 336.791 245.709 335 243.5 335H219.5C217.291 335 215.5 336.791 215.5 339V363C215.5 365.209 217.291 367 219.5 367H243.5C245.709 367 247.5 365.209 247.5 363Z" fill="#717171"/>
<path d="M285.5 363V339C285.5 336.791 283.709 335 281.5 335H257.5C255.291 335 253.5 336.791 253.5 339V363C253.5 365.209 255.291 367 257.5 367H281.5C283.709 367 285.5 365.209 285.5 363Z" fill="#717171"/>
<path d="M323.5 363V339C323.5 336.791 321.709 335 319.5 335H295.5C293.291 335 291.5 336.791 291.5 339V363C291.5 365.209 293.291 367 295.5 367H319.5C321.709 367 323.5 365.209 323.5 363Z" fill="#717171"/>
<path d="M361.5 363V339C361.5 336.791 359.709 335 357.5 335H333.5C331.291 335 329.5 336.791 329.5 339V363C329.5 365.209 331.291 367 333.5 367H357.5C359.709 367 361.5 365.209 361.5 363Z" fill="#717171"/>
<path d="M399.5 363V339C399.5 336.791 397.709 335 395.5 335H371.5C369.291 335 367.5 336.791 367.5 339V363C367.5 365.209 369.291 367 371.5 367H395.5C397.709 367 399.5 365.209 399.5 363Z" fill="#717171"/>
<path d="M437.5 363V339C437.5 336.791 435.709 335 433.5 335H409.5C407.291 335 405.5 336.791 405.5 339V363C405.5 365.209 407.291 367 409.5 367H433.5C435.709 367 437.5 365.209 437.5 363Z" fill="#717171"/>
<path d="M475.5 363V339C475.5 336.791 473.709 335 471.5 335H447.5C445.291 335 443.5 336.791 443.5 339V363C443.5 365.209 445.291 367 447.5 367H471.5C473.709 367 475.5 365.209 475.5 363Z" fill="#717171"/>
<path d="M513.5 363V339C513.5 336.791 511.709 335 509.5 335H485.5C483.291 335 481.5 336.791 481.5 339V363C481.5 365.209 483.291 367 485.5 367H509.5C511.709 367 513.5 365.209 513.5 363Z" fill="#717171"/>
<path d="M551.5 363V339C551.5 336.791 549.709 335 547.5 335H523.5C521.291 335 519.5 336.791 519.5 339V363C519.5 365.209 521.291 367 523.5 367H547.5C549.709 367 551.5 365.209 551.5 363Z" fill="#717171"/>
<path d="M608.5 363V339C608.5 336.791 606.709 335 604.5 335H560.5C558.291 335 556.5 336.791 556.5 339V363C556.5 365.209 558.291 367 560.5 367H604.5C606.709 367 608.5 365.209 608.5 363Z" fill="#717171"/>
<path d="M542.5 404H566.5C568.709 404 570.5 402.209 570.5 400V376C570.5 373.791 568.709 372 566.5 372H542.5C540.291 372 538.5 373.791 538.5 376V400C538.5 402.209 540.291 404 542.5 404Z" fill="#717171"/>
<path d="M580.5 404H604.5C606.709 404 608.5 402.209 608.5 400V376C608.5 373.791 606.709 372 604.5 372H580.5C578.291 372 576.5 373.791 576.5 376V400C576.5 402.209 578.291 404 580.5 404Z" fill="#717171"/>
<path d="M504.5 404H528.5C530.709 404 532.5 402.209 532.5 400V376C532.5 373.791 530.709 372 528.5 372H504.5C502.291 372 500.5 373.791 500.5 376V400C500.5 402.209 502.291 404 504.5 404Z" fill="#717171"/>
<path d="M466.5 404H490.5C492.709 404 494.5 402.209 494.5 400V376C494.5 373.791 492.709 372 490.5 372H466.5C464.291 372 462.5 373.791 462.5 376V400C462.5 402.209 464.291 404 466.5 404Z" fill="#717171"/>
<path d="M428.5 404H452.5C454.709 404 456.5 402.209 456.5 400V376C456.5 373.791 454.709 372 452.5 372H428.5C426.291 372 424.5 373.791 424.5 376V400C424.5 402.209 426.291 404 428.5 404Z" fill="#717171"/>
<path d="M390.5 404H414.5C416.709 404 418.5 402.209 418.5 400V376C418.5 373.791 416.709 372 414.5 372H390.5C388.291 372 386.5 373.791 386.5 376V400C386.5 402.209 388.291 404 390.5 404Z" fill="#717171"/>
<path d="M352.5 404H376.5C378.709 404 380.5 402.209 380.5 400V376C380.5 373.791 378.709 372 376.5 372H352.5C350.291 372 348.5 373.791 348.5 376V400C348.5 402.209 350.291 404 352.5 404Z" fill="#717171"/>
<path d="M314.5 404H338.5C340.709 404 342.5 402.209 342.5 400V376C342.5 373.791 340.709 372 338.5 372H314.5C312.291 372 310.5 373.791 310.5 376V400C310.5 402.209 312.291 404 314.5 404Z" fill="#717171"/>
<path d="M276.5 404H300.5C302.709 404 304.5 402.209 304.5 400V376C304.5 373.791 302.709 372 300.5 372H276.5C274.291 372 272.5 373.791 272.5 376V400C272.5 402.209 274.291 404 276.5 404Z" fill="#717171"/>
<path d="M238.5 404H262.5C264.709 404 266.5 402.209 266.5 400V376C266.5 373.791 264.709 372 262.5 372H238.5C236.291 372 234.5 373.791 234.5 376V400C234.5 402.209 236.291 404 238.5 404Z" fill="#717171"/>
<path d="M200.5 404H224.5C226.709 404 228.5 402.209 228.5 400V376C228.5 373.791 226.709 372 224.5 372H200.5C198.291 372 196.5 373.791 196.5 376V400C196.5 402.209 198.291 404 200.5 404Z" fill="#717171"/>
<path d="M162.5 404H186.5C188.709 404 190.5 402.209 190.5 400V376C190.5 373.791 188.709 372 186.5 372H162.5C160.291 372 158.5 373.791 158.5 376V400C158.5 402.209 160.291 404 162.5 404Z" fill="#717171"/>
<path d="M124.5 404H148.5C150.709 404 152.5 402.209 152.5 400V376C152.5 373.791 150.709 372 148.5 372H124.5C122.291 372 120.5 373.791 120.5 376V400C120.5 402.209 122.291 404 124.5 404Z" fill="#717171"/>
<path d="M551.5 441H604.5C606.709 441 608.5 439.209 608.5 437V413C608.5 410.791 606.709 409 604.5 409H551.5C549.291 409 547.5 410.791 547.5 413V437C547.5 439.209 549.291 441 551.5 441Z" fill="#03852C"/>
<path d="M67.5 441H120.5C122.709 441 124.5 439.209 124.5 437V413C124.5 410.791 122.709 409 120.5 409H67.5C65.2909 409 63.5 410.791 63.5 413V437C63.5 439.209 65.2909 441 67.5 441Z" fill="#717171"/>
<path d="M513.5 441H537.5C539.709 441 541.5 439.209 541.5 437V413C541.5 410.791 539.709 409 537.5 409H513.5C511.291 409 509.5 410.791 509.5 413V437C509.5 439.209 511.291 441 513.5 441Z" fill="#717171"/>
<path d="M475.5 441H499.5C501.709 441 503.5 439.209 503.5 437V413C503.5 410.791 501.709 409 499.5 409H475.5C473.291 409 471.5 410.791 471.5 413V437C471.5 439.209 473.291 441 475.5 441Z" fill="#717171"/>
<path d="M437.5 441H461.5C463.709 441 465.5 439.209 465.5 437V413C465.5 410.791 463.709 409 461.5 409H437.5C435.291 409 433.5 410.791 433.5 413V437C433.5 439.209 435.291 441 437.5 441Z" fill="#717171"/>
<path d="M399.5 441H423.5C425.709 441 427.5 439.209 427.5 437V413C427.5 410.791 425.709 409 423.5 409H399.5C397.291 409 395.5 410.791 395.5 413V437C395.5 439.209 397.291 441 399.5 441Z" fill="#717171"/>
<path d="M361.5 441H385.5C387.709 441 389.5 439.209 389.5 437V413C389.5 410.791 387.709 409 385.5 409H361.5C359.291 409 357.5 410.791 357.5 413V437C357.5 439.209 359.291 441 361.5 441Z" fill="#717171"/>
<path d="M323.5 441H347.5C349.709 441 351.5 439.209 351.5 437V413C351.5 410.791 349.709 409 347.5 409H323.5C321.291 409 319.5 410.791 319.5 413V437C319.5 439.209 321.291 441 323.5 441Z" fill="#717171"/>
<path d="M285.5 441H309.5C311.709 441 313.5 439.209 313.5 437V413C313.5 410.791 311.709 409 309.5 409H285.5C283.291 409 281.5 410.791 281.5 413V437C281.5 439.209 283.291 441 285.5 441Z" fill="#717171"/>
<path d="M247.5 441H271.5C273.709 441 275.5 439.209 275.5 437V413C275.5 410.791 273.709 409 271.5 409H247.5C245.291 409 243.5 410.791 243.5 413V437C243.5 439.209 245.291 441 247.5 441Z" fill="#717171"/>
<path d="M209.5 441H233.5C235.709 441 237.5 439.209 237.5 437V413C237.5 410.791 235.709 409 233.5 409H209.5C207.291 409 205.5 410.791 205.5 413V437C205.5 439.209 207.291 441 209.5 441Z" fill="#717171"/>
<path d="M171.5 441H195.5C197.709 441 199.5 439.209 199.5 437V413C199.5 410.791 197.709 409 195.5 409H171.5C169.291 409 167.5 410.791 167.5 413V437C167.5 439.209 169.291 441 171.5 441Z" fill="#717171"/>
<path d="M133.5 441H157.5C159.709 441 161.5 439.209 161.5 437V413C161.5 410.791 159.709 409 157.5 409H133.5C131.291 409 129.5 410.791 129.5 413V437C129.5 439.209 131.291 441 133.5 441Z" fill="#717171"/>
<path d="M533.5 478H604.5C606.709 478 608.5 476.209 608.5 474V450C608.5 447.791 606.709 446 604.5 446H533.5C531.291 446 529.5 447.791 529.5 450V474C529.5 476.209 531.291 478 533.5 478Z" fill="#03852C"/>
<path d="M495.5 478H519.5C521.709 478 523.5 476.209 523.5 474V450C523.5 447.791 521.709 446 519.5 446H495.5C493.291 446 491.5 447.791 491.5 450V474C491.5 476.209 493.291 478 495.5 478Z" fill="#717171"/>
<path d="M457.5 478H481.5C483.709 478 485.5 476.209 485.5 474V450C485.5 447.791 483.709 446 481.5 446H457.5C455.291 446 453.5 447.791 453.5 450V474C453.5 476.209 455.291 478 457.5 478Z" fill="#717171"/>
<path d="M419.5 478H443.5C445.709 478 447.5 476.209 447.5 474V450C447.5 447.791 445.709 446 443.5 446H419.5C417.291 446 415.5 447.791 415.5 450V474C415.5 476.209 417.291 478 419.5 478Z" fill="#717171"/>
<path d="M381.5 478H405.5C407.709 478 409.5 476.209 409.5 474V450C409.5 447.791 407.709 446 405.5 446H381.5C379.291 446 377.5 447.791 377.5 450V474C377.5 476.209 379.291 478 381.5 478Z" fill="#717171"/>
<path d="M343.5 478H367.5C369.709 478 371.5 476.209 371.5 474V450C371.5 447.791 369.709 446 367.5 446H343.5C341.291 446 339.5 447.791 339.5 450V474C339.5 476.209 341.291 478 343.5 478Z" fill="#717171"/>
<path d="M305.5 478H329.5C331.709 478 333.5 476.209 333.5 474V450C333.5 447.791 331.709 446 329.5 446H305.5C303.291 446 301.5 447.791 301.5 450V474C301.5 476.209 303.291 478 305.5 478Z" fill="#717171"/>
<path d="M267.5 478H291.5C293.709 478 295.5 476.209 295.5 474V450C295.5 447.791 293.709 446 291.5 446H267.5C265.291 446 263.5 447.791 263.5 450V474C263.5 476.209 265.291 478 267.5 478Z" fill="#717171"/>
<path d="M229.5 478H253.5C255.709 478 257.5 476.209 257.5 474V450C257.5 447.791 255.709 446 253.5 446H229.5C227.291 446 225.5 447.791 225.5 450V474C225.5 476.209 227.291 478 229.5 478Z" fill="#717171"/>
<path d="M191.5 478H215.5C217.709 478 219.5 476.209 219.5 474V450C219.5 447.791 217.709 446 215.5 446H191.5C189.291 446 187.5 447.791 187.5 450V474C187.5 476.209 189.291 478 191.5 478Z" fill="#717171"/>
<path d="M153.5 478H177.5C179.709 478 181.5 476.209 181.5 474V450C181.5 447.791 179.709 446 177.5 446H153.5C151.291 446 149.5 447.791 149.5 450V474C149.5 476.209 151.291 478 153.5 478Z" fill="#717171"/>
<path d="M67.5 478H139.5C141.709 478 143.5 476.209 143.5 474V450C143.5 447.791 141.709 446 139.5 446H67.5C65.2909 446 63.5 447.791 63.5 450V474C63.5 476.209 65.2909 478 67.5 478Z" fill="#03852C"/>
<path d="M67.5 404H111.5C113.709 404 115.5 402.209 115.5 400V376C115.5 373.791 113.709 372 111.5 372H67.5C65.2909 372 63.5 373.791 63.5 376V400C63.5 402.209 65.2909 404 67.5 404Z" fill="#03852C"/>
<path d="M608.5 310V326C608.5 328.21 606.71 330 604.5 330H580.5C578.29 330 576.5 328.21 576.5 326V302C576.5 299.79 578.29 298 580.5 298H596.5C603.12 298 608.5 303.38 608.5 310Z" fill="#03852C"/>
<path d="M177.5 487V511C177.5 513.209 179.291 515 181.5 515H215.5C217.709 515 219.5 513.209 219.5 511V487C219.5 484.791 217.709 483 215.5 483H181.5C179.291 483 177.5 484.791 177.5 487Z" fill="#717171"/>
<path d="M225.5 487V511C225.5 513.209 227.291 515 229.5 515H405.5C407.709 515 409.5 513.209 409.5 511V487C409.5 484.791 407.709 483 405.5 483H229.5C227.291 483 225.5 484.791 225.5 487Z" fill="#03852C"/>
<path d="M139.5 487V511C139.5 513.209 141.291 515 143.5 515H167.5C169.709 515 171.5 513.209 171.5 511V487C171.5 484.791 169.709 483 167.5 483H143.5C141.291 483 139.5 484.791 139.5 487Z" fill="#717171"/>
<path d="M101.5 487V511C101.5 513.209 103.291 515 105.5 515H129.5C131.709 515 133.5 513.209 133.5 511V487C133.5 484.791 131.709 483 129.5 483H105.5C103.291 483 101.5 484.791 101.5 487Z" fill="#717171"/>
<path d="M453.5 483H419.5C417.291 483 415.5 484.791 415.5 487V511C415.5 513.209 417.291 515 419.5 515H453.5C455.709 515 457.5 513.209 457.5 511V487C457.5 484.791 455.709 483 453.5 483Z" fill="#717171"/>
<path d="M491.5 483H467.5C465.291 483 463.5 484.791 463.5 487V511C463.5 513.209 465.291 515 467.5 515H491.5C493.709 515 495.5 513.209 495.5 511V487C495.5 484.791 493.709 483 491.5 483Z" fill="#717171"/>
<path d="M529.5 483H505.5C503.291 483 501.5 484.791 501.5 487V511C501.5 513.209 503.291 515 505.5 515H529.5C531.709 515 533.5 513.209 533.5 511V487C533.5 484.791 531.709 483 529.5 483Z" fill="#717171"/>
<path d="M567.5 483H543.5C541.291 483 539.5 484.791 539.5 487V511C539.5 513.209 541.291 515 543.5 515H567.5C569.709 515 571.5 513.209 571.5 511V487C571.5 484.791 569.709 483 567.5 483Z" fill="#717171"/>
<path d="M580.5 483H604.5C606.71 483 608.5 484.79 608.5 487V503C608.5 509.62 603.12 515 596.5 515H580.5C578.29 515 576.5 513.21 576.5 511V487C576.5 484.79 578.29 483 580.5 483Z" fill="#717171"/>
<path d="M63.5 503V487C63.5 484.79 65.29 483 67.5 483H91.5C93.71 483 95.5 484.79 95.5 487V511C95.5 513.21 93.71 515 91.5 515H75.5C68.88 515 63.5 509.62 63.5 503Z" fill="#717171"/>
<defs>
<linearGradient id="paint0_linear_126_17646" x1="470.474" y1="71.1875" x2="470.474" y2="186.402" gradientUnits="userSpaceOnUse">
<stop stop-color="#03852C"/>
<stop offset="1" stop-color="#05541E"/>
</linearGradient>
<linearGradient id="paint1_linear_126_17646" x1="542.482" y1="229.607" x2="542.482" y2="272.813" gradientUnits="userSpaceOnUse">
<stop stop-color="#03852C"/>
<stop offset="1" stop-color="#05541E"/>
</linearGradient>
</defs>
</svg>
