<svg width="671" height="593" viewBox="0 0 671 593" fill="none" xmlns="http://www.w3.org/2000/svg">
<path d="M325.063 122.632L325.062 175.121" stroke="#717171" stroke-width="13.1591" stroke-miterlimit="10" stroke-linecap="round" stroke-linejoin="round"/>
<path d="M325.063 221.048L325.062 273.536" stroke="#717171" stroke-width="13.1591" stroke-miterlimit="10" stroke-linecap="round" stroke-linejoin="round"/>
<path d="M325.063 319.464L325.062 371.952" stroke="#717171" stroke-width="13.1591" stroke-miterlimit="10" stroke-linecap="round" stroke-linejoin="round"/>
<path d="M325.063 417.879L325.062 470.368" stroke="#717171" stroke-width="13.1591" stroke-miterlimit="10" stroke-linecap="round" stroke-linejoin="round"/>
<path d="M325.059 122.633C337.536 122.633 347.65 112.351 347.65 99.6688C347.65 86.9862 337.536 76.7048 325.059 76.7048C312.583 76.7048 302.468 86.9862 302.468 99.6688C302.468 112.351 312.583 122.633 325.059 122.633Z" fill="#717171"/>
<path d="M325.059 221.048C337.536 221.048 347.65 210.767 347.65 198.084C347.65 185.401 337.536 175.12 325.059 175.12C312.583 175.12 302.468 185.401 302.468 198.084C302.468 210.767 312.583 221.048 325.059 221.048Z" fill="#717171"/>
<path d="M325.059 319.464C337.536 319.464 347.65 309.183 347.65 296.5C347.65 283.817 337.536 273.536 325.059 273.536C312.583 273.536 302.468 283.817 302.468 296.5C302.468 309.183 312.583 319.464 325.059 319.464Z" fill="#717171"/>
<path d="M325.059 417.88C337.536 417.88 347.65 407.599 347.65 394.916C347.65 382.233 337.536 371.952 325.059 371.952C312.583 371.952 302.468 382.233 302.468 394.916C302.468 407.599 312.583 417.88 325.059 417.88Z" fill="#717171"/>
<path d="M325.059 516.295C337.536 516.295 347.65 506.014 347.65 493.331C347.65 480.649 337.536 470.367 325.059 470.367C312.583 470.367 302.468 480.649 302.468 493.331C302.468 506.014 312.583 516.295 325.059 516.295Z" fill="#717171"/>
<path d="M453.076 171.397H523.126C528.969 171.397 533.706 176.212 533.706 182.152V214.797C533.706 220.737 528.969 225.552 523.126 225.552H396.55C390.707 225.552 385.97 220.737 385.97 214.797V182.152C385.97 176.212 390.707 171.397 396.55 171.397H423.489" fill="#717171"/>
<path d="M439.992 198.219H479.992" stroke="#02BA3C" stroke-width="8" stroke-miterlimit="10" stroke-linecap="round" stroke-linejoin="round"/>
<path d="M523.126 323.577H396.55C390.707 323.577 385.97 318.762 385.97 312.822V280.177C385.97 274.238 390.707 269.422 396.55 269.422H523.126C528.968 269.422 533.705 274.238 533.705 280.177V312.822C533.706 318.763 528.969 323.577 523.126 323.577Z" fill="#717171"/>
<path d="M439.992 296.219H479.992" stroke="#02BA3C" stroke-width="8" stroke-miterlimit="10" stroke-linecap="round" stroke-linejoin="round"/>
<path d="M466.749 421.603H396.573C390.73 421.603 385.993 416.788 385.993 410.849V378.203C385.993 372.264 390.73 367.448 396.573 367.448H523.149C528.992 367.448 533.729 372.264 533.729 378.203V410.849C533.729 416.788 528.992 421.603 523.149 421.603H496.335" fill="#717171"/>
<path d="M439.992 394.219H479.992" stroke="#02BA3C" stroke-width="8" stroke-miterlimit="10" stroke-linecap="round" stroke-linejoin="round"/>
<path d="M523.126 516.295H396.55C390.707 516.295 385.97 511.48 385.97 505.541V472.895C385.97 466.956 390.707 462.141 396.55 462.141H523.126C528.968 462.141 533.705 466.956 533.705 472.895V505.541C533.706 511.48 528.969 516.295 523.126 516.295Z" fill="#717171"/>
<path d="M439.992 489.219H479.992" stroke="#02BA3C" stroke-width="8" stroke-miterlimit="10" stroke-linecap="round" stroke-linejoin="round"/>
<path d="M523.126 130.859H396.55C390.707 130.859 385.97 126.043 385.97 120.104V87.4593C385.97 81.52 390.707 76.7048 396.55 76.7048H523.126C528.968 76.7048 533.705 81.52 533.705 87.4593V120.105C533.706 126.044 528.969 130.859 523.126 130.859Z" fill="#717171"/>
<path d="M439.992 104.219H479.992" stroke="#02BA3C" stroke-width="8" stroke-miterlimit="10" stroke-linecap="round" stroke-linejoin="round"/>
<g clip-path="url(#clip0_126_17942)">
<path d="M199.917 348.002C199.138 352.14 197.901 356.136 196.234 359.959L211.19 371.721C209.093 375.552 206.705 379.234 203.949 382.692L184.746 377.319C181.717 380.532 178.326 383.471 174.624 386.1L180.815 402.767C176.831 405.159 172.589 407.228 168.175 409.052L154.623 396.071C150.219 397.518 145.619 398.592 140.847 399.268L136.581 416.416C134.169 416.582 131.747 416.735 129.282 416.735C126.817 416.735 124.395 416.582 121.978 416.416L117.713 399.268C112.945 398.592 108.34 397.518 103.936 396.071L90.3843 409.052C85.9705 407.232 81.7287 405.159 77.7448 402.767L83.9356 386.1C80.2335 383.471 76.8467 380.528 73.8182 377.319L54.6153 382.692C51.8591 379.234 49.4755 375.552 47.3737 371.721L62.3299 359.959C60.6628 356.136 59.4256 352.144 58.647 348.002L38.89 344.3C38.6989 342.202 38.5222 340.1 38.5222 337.96C38.5222 335.821 38.6989 333.719 38.89 331.621L58.647 327.919C59.4256 323.781 60.6628 319.784 62.3299 315.961L47.3737 304.199C49.4707 300.368 51.8591 296.686 54.6153 293.229L73.8182 298.602C76.8467 295.389 80.2383 292.449 83.9403 289.821L77.7495 273.154C81.7334 270.761 85.9753 268.692 90.3891 266.868L103.941 279.849C108.345 278.402 112.945 277.329 117.717 276.653L121.983 259.505C124.395 259.339 126.817 259.186 129.282 259.186C131.747 259.186 134.169 259.339 136.586 259.505L140.852 276.653C145.619 277.329 150.224 278.402 154.628 279.849L168.18 266.868C172.594 268.688 176.835 270.761 180.819 273.154L174.629 289.821C178.331 292.449 181.717 295.393 184.746 298.606L203.949 293.233C206.705 296.691 209.089 300.372 211.19 304.203L196.234 315.966C197.901 319.788 199.138 323.781 199.917 327.923L219.674 331.625C219.865 333.719 220.042 335.821 220.042 337.96C220.042 340.1 219.865 342.202 219.674 344.3L199.917 348.002ZM129.282 296.5C102.9 296.5 81.5137 315.062 81.5137 337.96C81.5137 360.859 102.9 379.421 129.282 379.421C155.664 379.421 177.05 360.859 177.05 337.96C177.05 315.062 155.664 296.5 129.282 296.5Z" fill="#717171"/>
<path d="M254.814 223.163C254.069 225.307 253.094 227.363 251.895 229.299L259.438 241.845C256.892 244.64 253.988 247.16 250.768 249.37L236.313 242.824C234.083 243.868 231.713 244.714 229.244 245.357L224.352 258.873C222.336 259.08 220.301 259.213 218.228 259.213C216.155 259.213 214.12 259.08 212.109 258.877L207.218 245.361C204.748 244.718 202.379 243.868 200.148 242.828L185.693 249.374C182.474 247.164 179.569 244.644 177.023 241.849L184.566 229.303C183.362 227.367 182.388 225.311 181.647 223.167L166.075 218.922C165.836 217.172 165.683 215.406 165.683 213.606C165.683 211.807 165.836 210.041 166.07 208.295L181.643 204.05C182.383 201.906 183.362 199.85 184.561 197.914L177.019 185.368C179.565 182.573 182.469 180.053 185.689 177.843L200.143 184.389C202.374 183.344 204.743 182.499 207.213 181.856L212.104 168.34C214.12 168.133 216.155 168 218.228 168C220.301 168 222.336 168.133 224.347 168.336L229.239 181.852C231.709 182.495 234.078 183.344 236.309 184.385L250.763 177.839C253.983 180.048 256.887 182.569 259.433 185.364L251.891 197.91C253.094 199.846 254.069 201.902 254.809 204.046L270.382 208.291C270.621 210.041 270.774 211.807 270.774 213.606C270.774 215.406 270.621 217.172 270.387 218.917L254.814 223.163ZM218.228 197.022C207.676 197.022 199.121 204.448 199.121 213.606C199.121 222.765 207.676 230.191 218.228 230.191C228.78 230.191 237.336 222.765 237.336 213.606C237.336 204.448 228.78 197.022 218.228 197.022Z" fill="#03852C"/>
<path d="M306.451 330.072C305.715 332.373 304.679 334.553 303.351 336.589L308.104 345.271C305.945 347.663 303.466 349.815 300.709 351.689L290.707 347.564C288.366 348.716 285.849 349.616 283.197 350.254L279.481 359.326C277.766 359.508 276.032 359.629 274.26 359.629C272.488 359.629 270.754 359.508 269.039 359.326L265.323 350.254C262.671 349.616 260.159 348.716 257.813 347.564L247.811 351.689C245.054 349.815 242.575 347.663 240.416 345.271L245.169 336.589C243.841 334.558 242.805 332.373 242.069 330.076L231.617 326.85C231.407 325.358 231.268 323.853 231.268 322.314C231.268 320.776 231.407 319.271 231.617 317.783L242.069 314.557C242.805 312.256 243.841 310.075 245.169 308.044L240.416 299.362C242.575 296.97 245.054 294.818 247.811 292.944L257.813 297.069C260.154 295.917 262.671 295.017 265.323 294.378L269.039 285.307C270.754 285.12 272.488 285 274.26 285C276.032 285 277.766 285.12 279.481 285.303L283.197 294.374C285.849 295.013 288.361 295.912 290.707 297.065L300.709 292.94C303.466 294.814 305.945 296.965 308.104 299.358L303.351 308.04C304.679 310.071 305.715 312.256 306.451 314.557L316.903 317.783C317.113 319.271 317.252 320.776 317.252 322.314C317.252 323.853 317.113 325.358 316.903 326.846L306.451 330.072ZM274.26 309.876C266.345 309.876 259.93 315.444 259.93 322.314C259.93 329.184 266.345 334.752 274.26 334.752C282.175 334.752 288.591 329.184 288.591 322.314C288.591 315.444 282.175 309.876 274.26 309.876Z" fill="#717171"/>
<path d="M317.083 187.958L288.513 183L282.8 207.793L292.167 209.422L294.742 198.261C299.371 206.619 301.816 215.832 301.816 225.19C301.816 239.485 296.38 252.927 286.101 264.059L293.557 269.245C305.046 256.803 311.37 241.16 311.37 225.19C311.37 214.331 308.48 203.626 302.982 193.966L315.211 196.089L317.083 187.958Z" fill="url(#paint0_linear_126_17942)"/>
<path d="M127.558 214L120.803 219.862L127.295 225.497C124.668 225.352 122.036 225.223 119.404 225.223C82.4499 225.223 47.665 239.365 23.9719 264.026L31.3091 269.337C53.1823 246.571 85.2874 233.515 119.404 233.515C121.835 233.515 124.262 233.636 126.688 233.768L120.803 238.876L127.558 244.739L145.265 229.369L127.558 214Z" fill="url(#paint1_linear_126_17942)"/>
</g>
<defs>
<linearGradient id="paint0_linear_126_17942" x1="299.942" y1="183" x2="299.942" y2="269.245" gradientUnits="userSpaceOnUse">
<stop stop-color="#03852C"/>
<stop offset="1" stop-color="#7AFF88"/>
</linearGradient>
<linearGradient id="paint1_linear_126_17942" x1="84.6186" y1="214" x2="84.6186" y2="269.337" gradientUnits="userSpaceOnUse">
<stop stop-color="#03852C"/>
<stop offset="1" stop-color="#7AFF88"/>
</linearGradient>
<clipPath id="clip0_126_17942">
<rect width="305.717" height="265.346" fill="white" transform="translate(24.1824 163.827)"/>
</clipPath>
</defs>
</svg>
