<svg width="671" height="593" viewBox="0 0 671 593" fill="none" xmlns="http://www.w3.org/2000/svg">
<mask id="path-2-outside-1_126_17908" maskUnits="userSpaceOnUse" x="43.5" y="77" width="545" height="410" fill="black">
<rect fill="white" x="43.5" y="77" width="545" height="410"/>
<path d="M43.5 77H588.5V485H43.5V77Z"/>
</mask>
<path d="M588.5 485V483H43.5V485V487H588.5V485Z" fill="#717171" mask="url(#path-2-outside-1_126_17908)"/>
<path d="M70.5 212.877C70.5 211.841 71.3405 211 72.3774 211H101.623C102.659 211 103.5 211.841 103.5 212.877V485H70.5V212.877Z" fill="#717171"/>
<path d="M324.5 185.877C324.5 184.841 325.341 184 326.377 184H355.623C356.659 184 357.5 184.841 357.5 185.877V485H324.5V185.877Z" fill="#717171"/>
<path d="M121.5 106.877C121.5 105.841 122.341 105 123.377 105H152.623C153.659 105 154.5 105.841 154.5 106.877V485H121.5V106.877Z" fill="#717171"/>
<path d="M374.5 106.877C374.5 105.841 375.341 105 376.377 105H405.623C406.659 105 407.5 105.841 407.5 106.877V485H374.5V106.877Z" fill="#03852C"/>
<path d="M172.5 264.877C172.5 263.841 173.341 263 174.377 263H203.623C204.659 263 205.5 263.841 205.5 264.877V485H172.5V264.877Z" fill="#717171"/>
<path d="M425.5 237.877C425.5 236.841 426.341 236 427.377 236H456.623C457.659 236 458.5 236.841 458.5 237.877V485H425.5V237.877Z" fill="#717171"/>
<path d="M222.5 163.877C222.5 162.841 223.341 162 224.377 162H253.623C254.659 162 255.5 162.841 255.5 163.877V485H222.5V163.877Z" fill="#717171"/>
<path d="M476.5 163.877C476.5 162.841 477.341 162 478.377 162H507.623C508.659 162 509.5 162.841 509.5 163.877V485H476.5V163.877Z" fill="#717171"/>
<path d="M273.5 292.877C273.5 291.841 274.341 291 275.377 291H304.623C305.659 291 306.5 291.841 306.5 292.877V485H273.5V292.877Z" fill="#717171"/>
<path d="M526.5 292.877C526.5 291.841 527.341 291 528.377 291H558.623C559.659 291 560.5 291.841 560.5 292.877V485H526.5V292.877Z" fill="#717171"/>
<path d="M71.5 396L77.6125 388C84.1325 380 96.765 364 108.99 340C121.622 316 134.255 284 146.888 280C159.113 276 171.745 300 184.378 300C197.01 300 209.235 276 221.868 264C234.5 252 247.132 252 259.765 280C271.99 308 274.02 369 297.255 356C309.888 348 322.112 276 334.745 264C347.377 252 360.01 300 372.235 304C384.868 308 397.5 268 410.133 276C422.765 284 434.99 340 447.622 360C460.255 380 472.887 364 485.112 344C497.745 324 497.99 326 510.622 310C522.847 294 535.48 286 542 282L548.112 278" stroke="url(#paint0_linear_126_17908)" stroke-width="2"/>
<g clip-path="url(#clip0_126_17908)">
<rect width="114" height="114" rx="51.2114" transform="matrix(-1 0 0 1 542.5 329)" fill="white"/>
<path d="M510.832 386.34C513.657 386.34 515.948 388.631 515.948 391.456V407.829C515.948 410.655 513.657 412.946 510.832 412.946C508.006 412.946 505.716 410.655 505.716 407.829V391.456C505.716 388.631 508.006 386.34 510.832 386.34Z" fill="url(#paint1_linear_126_17908)"/>
<path d="M493.941 369.287C496.766 369.287 499.058 371.577 499.058 374.403V407.83C499.058 410.655 496.766 412.946 493.941 412.946C491.116 412.946 488.825 410.655 488.825 407.83V374.403C488.825 371.577 491.116 369.287 493.941 369.287Z" fill="url(#paint2_linear_126_17908)"/>
<path d="M477.051 376.108C479.875 376.108 482.167 378.398 482.167 381.224V407.829C482.167 410.655 479.875 412.945 477.051 412.945C474.225 412.945 471.935 410.655 471.935 407.829V381.224C471.935 378.398 474.225 376.108 477.051 376.108Z" fill="url(#paint3_linear_126_17908)"/>
<path d="M460.168 359.054C462.993 359.054 465.284 361.344 465.284 364.17V407.829C465.284 410.655 462.993 412.946 460.168 412.946C457.342 412.946 455.052 410.655 455.052 407.829V364.17C455.052 361.344 457.342 359.054 460.168 359.054Z" fill="url(#paint4_linear_126_17908)"/>
<path d="M436.983 337.412C449.946 324.45 467.182 317.31 485.515 317.31C503.848 317.31 521.082 324.45 534.046 337.412C547.01 350.376 554.148 367.612 554.148 385.945C554.148 402.349 548.432 417.874 537.944 430.245L551.815 444.116C558.929 440.449 567.909 441.598 573.864 447.554L607.532 481.223C611.104 484.795 613.07 489.543 613.07 494.593C613.07 499.643 611.104 504.391 607.532 507.962C603.845 511.648 599.005 513.492 594.163 513.492C589.32 513.492 584.48 511.648 580.793 507.962L547.124 474.293C543.552 470.723 541.586 465.975 541.586 460.924C541.586 457.854 542.313 454.894 543.686 452.245L529.815 438.373C517.442 448.862 501.917 454.579 485.514 454.579C467.181 454.579 449.945 447.439 436.983 434.476C424.02 421.512 416.88 404.278 416.88 385.944C416.88 367.612 424.02 350.376 436.983 337.412ZM445.112 426.347C455.904 437.139 470.252 443.083 485.515 443.083C500.777 443.083 515.125 437.139 525.917 426.347C536.709 415.555 542.653 401.207 542.653 385.945C542.653 370.682 536.709 356.334 525.917 345.541C515.125 334.749 500.777 328.806 485.515 328.806C470.252 328.806 455.904 334.749 445.112 345.541C434.32 356.334 428.376 370.682 428.376 385.944C428.376 401.207 434.32 415.555 445.112 426.347Z" fill="#03852C"/>
</g>
<rect x="405.5" y="273" width="7.50966" height="7.50969" rx="3.75483" fill="#03852C"/>
<rect x="403.623" y="271.123" width="11.2645" height="11.2645" rx="5.63225" stroke="#03852C" stroke-opacity="0.24" stroke-width="3.75484"/>
<defs>
<linearGradient id="paint0_linear_126_17908" x1="309.806" y1="256.383" x2="309.806" y2="396" gradientUnits="userSpaceOnUse">
<stop stop-color="#03852C"/>
<stop offset="1" stop-color="#7AFF88"/>
</linearGradient>
<linearGradient id="paint1_linear_126_17908" x1="510.832" y1="386.34" x2="510.832" y2="412.946" gradientUnits="userSpaceOnUse">
<stop stop-color="#03852C"/>
<stop offset="1" stop-color="#7AFF88"/>
</linearGradient>
<linearGradient id="paint2_linear_126_17908" x1="493.941" y1="369.287" x2="493.941" y2="412.946" gradientUnits="userSpaceOnUse">
<stop stop-color="#03852C"/>
<stop offset="1" stop-color="#7AFF88"/>
</linearGradient>
<linearGradient id="paint3_linear_126_17908" x1="477.051" y1="376.108" x2="477.051" y2="412.945" gradientUnits="userSpaceOnUse">
<stop stop-color="#03852C"/>
<stop offset="1" stop-color="#7AFF88"/>
</linearGradient>
<linearGradient id="paint4_linear_126_17908" x1="460.168" y1="359.054" x2="460.168" y2="412.946" gradientUnits="userSpaceOnUse">
<stop stop-color="#03852C"/>
<stop offset="1" stop-color="#7AFF88"/>
</linearGradient>
<clipPath id="clip0_126_17908">
<rect width="196.19" height="196.191" fill="white" transform="matrix(-1 0 0 1 613.07 317.31)"/>
</clipPath>
</defs>
</svg>
